<?xml version="1.0" encoding="UTF-8"?>
<svg width="55px" height="55px" viewBox="0 0 55 55" version="1.1" xmlns="http://www.w3.org/2000/svg" xmlns:xlink="http://www.w3.org/1999/xlink">
    <!-- Generator: Sketch 53.2 (72643) - https://sketchapp.com -->
    <title>Icon Shape</title>
    <desc>Created with Sketch.</desc>
    <g id="Symbols" stroke="none" stroke-width="1" fill="none" fill-rule="evenodd">
        <g id="Footer" transform="translate(-1447.000000, -37.000000)" fill="#FFFFFF" fill-rule="nonzero">
            <g id="logos-instagram-icon" transform="translate(1447.000000, 37.000000)">
                <g id="Icon">
                    <path d="M27.5,4.95515625 C34.8427148,4.95515625 35.7124023,4.98308594 38.6121484,5.11521484 C41.2933984,5.23767578 42.7496094,5.685625 43.7187695,6.06224609 C45.0022461,6.56111328 45.9183398,7.15708984 46.880625,8.119375 C47.843125,9.08166016 48.4388867,9.99775391 48.9377539,11.2812305 C49.314375,12.2503906 49.7623242,13.7066016 49.8847852,16.3876367 C50.0169141,19.2875977 50.0448437,20.1572852 50.0448437,27.5 C50.0448437,34.8429297 50.0169141,35.7126172 49.8847852,38.6123633 C49.7623242,41.2936133 49.314375,42.7496094 48.9377539,43.7187695 C48.4388867,45.0022461 47.8429102,45.9185547 46.880625,46.8808398 C45.9183398,47.843125 45.0022461,48.4391016 43.7187695,48.9377539 C42.7496094,49.314375 41.2933984,49.7625391 38.6121484,49.8847852 C35.712832,50.0171289 34.8431445,50.0450586 27.5,50.0450586 C20.1566406,50.0450586 19.2869531,50.0171289 16.3876367,49.8847852 C13.7063867,49.7623242 12.2503906,49.314375 11.2812305,48.9377539 C9.99775391,48.4391016 9.08144531,47.843125 8.11916016,46.8808398 C7.156875,45.9183398 6.56089844,45.0022461 6.06224609,43.7187695 C5.685625,42.7498242 5.23746094,41.2936133 5.11521484,38.6123633 C4.98287109,35.7126172 4.95494141,34.8429297 4.95494141,27.5 C4.95494141,20.1572852 4.98287109,19.2875977 5.11521484,16.3878516 C5.23767578,13.7066016 5.685625,12.2503906 6.06224609,11.2812305 C6.56089844,9.99775391 7.156875,9.08166016 8.11916016,8.119375 C9.08166016,7.156875 9.99775391,6.56111328 11.2812305,6.06224609 C12.2501758,5.685625 13.7063867,5.23767578 16.3876367,5.11521484 C19.2873828,4.98308594 20.1570703,4.95515625 27.5,4.95515625 L27.5,4.95515625 Z M27.5,0 C20.0313867,0 19.0948828,0.0315820312 16.1618359,0.165429688 C13.2345898,0.2990625 11.2354687,0.763984375 9.48642578,1.44375 C7.67787109,2.14650391 6.14431641,3.086875 4.61548828,4.61570313 C3.08666016,6.14453125 2.14650391,7.67808594 1.44375,9.48642578 C0.763769531,11.2356836 0.2990625,13.2348047 0.165429688,16.1618359 C0.0315820312,19.0948828 0,20.0313867 0,27.5 C0,34.9686133 0.0315820312,35.9051172 0.165429688,38.8381641 C0.2990625,41.7654102 0.763769531,43.7645313 1.44375,45.5135742 C2.14628906,47.3219141 3.08666016,48.8556836 4.61548828,50.3845117 C6.14431641,51.9133398 7.67787109,52.8534961 9.48642578,53.55625 C11.2356836,54.2362305 13.2345898,54.7009375 16.1616211,54.8345703 C19.0948828,54.968418 20.0313867,55 27.5,55 C34.9686133,55 35.9051172,54.968418 38.8381641,54.8345703 C41.7651953,54.7009375 43.7643164,54.2362305 45.5133594,53.55625 C47.3219141,52.8537109 48.8554688,51.9133398 50.3842969,50.3845117 C51.913125,48.8556836 52.8534961,47.3221289 53.55625,45.5135742 C54.2360156,43.7643164 54.7009375,41.7654102 54.8345703,38.8383789 C54.968418,35.9051172 55,34.9686133 55,27.5 C55,20.0313867 54.968418,19.0948828 54.8345703,16.1618359 C54.7009375,13.2348047 54.2360156,11.2356836 53.55625,9.48664062 C52.8534961,7.67808594 51.913125,6.14453125 50.3842969,4.61570312 C48.8554688,3.086875 47.3219141,2.14628906 45.5135742,1.44375 C43.7643164,0.763984375 41.7651953,0.2990625 38.8381641,0.165429687 C35.9051172,0.0315820312 34.9686133,0 27.5,0 Z M27.5,13.3783203 C19.7007422,13.3783203 13.3783203,19.7011719 13.3783203,27.5 C13.3783203,35.2992578 19.7007422,41.6216797 27.5,41.6216797 C35.299043,41.6216797 41.6216797,35.2992578 41.6216797,27.5 C41.6216797,19.700957 35.299043,13.3783203 27.5,13.3783203 Z M27.5,36.6667383 C22.4374219,36.6667383 18.3332617,32.5625781 18.3332617,27.5 C18.3332617,22.4374219 22.4374219,18.3332617 27.5,18.3332617 C32.5625781,18.3332617 36.6667383,22.4374219 36.6667383,27.5 C36.6667383,32.5625781 32.5625781,36.6667383 27.5,36.6667383 Z M45.4794141,12.8203711 C45.4794141,14.6431055 44.0021484,16.1203711 42.1794141,16.1203711 C40.3568945,16.1203711 38.8794141,14.6431055 38.8794141,12.8203711 C38.8794141,10.9978516 40.3568945,9.52037109 42.1794141,9.52037109 C44.0021484,9.52037109 45.4794141,10.9978516 45.4794141,12.8203711 L45.4794141,12.8203711 Z" id="Icon-Shape"></path>
                </g>
            </g>
        </g>
    </g>
</svg>