<?xml version="1.0" encoding="UTF-8"?>
<svg width="309px" height="34px" viewBox="0 0 309 34" version="1.1" xmlns="http://www.w3.org/2000/svg" xmlns:xlink="http://www.w3.org/1999/xlink">
    <!-- Generator: Sketch 53.2 (72643) - https://sketchapp.com -->
    <title>LOGO</title>
    <desc>Created with Sketch.</desc>
    <g id="Symbols" stroke="none" stroke-width="1" fill="none" fill-rule="evenodd">
        <g id="nav" transform="translate(-27.000000, -31.000000)" fill="#FFFFFF">
            <g id="LOGO">
                <path d="M32.6957182,52.8188095 L29.06706,62.7464003 C28.9674512,63.0184491 28.9095226,63.4390637 28.9013985,64 L27,64 C27.2739243,63.4555515 27.473142,63.0352877 27.5812282,62.7464003 L38.6236803,32.0143511 C38.7068643,31.8084289 38.7813943,31.4704288 38.8479768,31 L41.6705805,31 C41.7120841,31.3216877 41.7786666,31.5942628 41.861674,31.8249167 L53.319163,62.7464003 C53.4353733,63.0517755 53.6596698,63.4639708 54,64 L50.255838,64 C50.2222818,63.5956979 50.1311503,63.1835026 49.9900378,62.7464003 L46.3368307,52.8188095 L32.6957182,52.8188095 Z M33,52 L45,52 L38.8820015,35 L33,52 Z M59,31 L67.472228,31 C70.6716669,31 73.4631026,31.585668 75.8545217,32.7650726 C78.4662625,34.0349848 80.4496785,35.8816194 81.804596,38.2979606 C83.2652472,40.928117 84,43.921356 84,47.269083 C84,50.9965557 83.1510063,54.2532489 81.4453797,57.0654729 C80.596386,58.4506243 79.4702974,59.6956293 78.0499257,60.8089072 C76.6380613,61.9221852 75.1034488,62.754995 73.4631026,63.2989173 C72.0512382,63.7691707 70.3046377,64 68.2311138,64 L59,64 C59.1142409,63.4723901 59.1717085,62.9444294 59.1717085,62.4333073 L59.1717085,32.5423118 C59.1717085,32.0476775 59.1142409,31.5281361 59,31 Z M63,63 L68.6809233,63 C71.872539,63 74.4332994,62.1158355 76.3803462,60.3566381 C77.8083842,59.0602932 78.8618466,57.5453243 79.5320774,55.8115525 C80.5130686,53.2946021 81,50.5923317 81,47.6886265 C81,43.4459618 80.0982688,40.1972211 78.295146,37.9411512 C75.6620842,34.650154 72.0797692,33 67.5319077,33 L63,33 L63,63 Z M95.1611376,48.2832587 L95.1611376,62.4496197 C95.1611376,62.9528487 95.2172535,63.4639708 95.3298274,64 L92,64 C92.1125739,63.4639708 92.1693742,62.9528487 92.1693742,62.4496197 L92.1693742,32.5587996 C92.1693742,32.0555706 92.1125739,31.5360292 92,31 L99.0213286,31 C101.032091,31 102.810006,31.3465948 104.361747,32.0392582 C105.80177,32.6661458 106.959844,33.6143702 107.820573,34.8677946 C108.777451,36.252946 109.252212,37.8361265 109.252212,39.6090922 C109.252212,42.2145169 108.383613,44.2595315 106.646074,45.7357167 C104.901178,47.2113756 102.367238,48.0604978 99.0213286,48.2832587 L111.608737,62.837434 C111.97041,63.24121 112.436959,63.6290243 113,64 L108.383613,64 C108.206711,63.6125365 107.908852,63.1670148 107.482509,62.6723805 L95.1611376,48.2832587 Z M95,48 L98.2242765,48 C99.8728483,48 101.368673,47.5919155 102.711238,46.7755656 C104.906654,45.4321065 106,43.3571342 106,40.5511915 C106,39.2842482 105.750781,38.1187835 105.252344,37.038879 C104.745697,35.9589745 104.054316,35.0832931 103.16161,34.419794 C101.891228,33.4757368 100.090081,33 97.7578255,33 L95,33 L95,48 Z M118,31 L121,31 C120.898726,31.379395 120.848012,31.8989364 120.848012,32.5672189 L120.848012,62.4496197 C120.848012,63.117376 120.898726,63.6290243 121,64 L118,64 C118.101274,63.4723901 118.152451,62.9528487 118.152451,62.4496197 L118.152451,32.5672189 C118.152451,32.0639899 118.101274,31.5360292 118,31 Z M132.695718,52.8188095 L129.067237,62.7464003 C128.967451,63.0184491 128.909523,63.4390637 128.901399,64 L127,64 C127.273924,63.4555515 127.473142,63.0352877 127.581228,62.7464003 L138.62368,32.0143511 C138.706864,31.8084289 138.781394,31.4704288 138.847977,31 L141.67058,31 C141.712084,31.3216877 141.778667,31.5942628 141.861851,31.8249167 L153.319163,62.7464003 C153.435373,63.0517755 153.65967,63.4639708 154,64 L150.255838,64 C150.222282,63.5956979 150.13115,63.1835026 149.990038,62.7464003 L146.336831,52.8188095 L132.695718,52.8188095 Z M134,52 L146,52 L139.882002,35 L134,52 Z M161.587403,33.943951 L161.587403,62.4496197 C161.587403,62.9528487 161.644375,63.4723901 161.758144,64 L160,64 C160.113769,63.4723901 160.170741,62.9528487 160.170741,62.4496197 L160.170741,32.5672189 C160.170741,32.0639899 160.113769,31.5360292 160,31 L163.329443,31 C163.411004,31.3053753 163.56564,31.6105752 163.785559,31.9154242 L183.371903,60.1327317 L183.371903,32.5672189 C183.371903,32.0639899 183.314932,31.5360292 183.200989,31 L184.959306,31 C184.845364,31.5360292 184.788392,32.0639899 184.788392,32.5672189 L184.788392,62.6227417 C184.788392,63.2496293 184.861641,63.7114633 185,64 L182.37049,64 C182.272825,63.744439 182.061217,63.3897756 181.743633,62.9363609 L161.587403,33.943951 Z M195.695718,52.8188095 L192.06706,62.7464003 C191.967451,63.0184491 191.909523,63.4390637 191.901399,64 L190,64 C190.273924,63.4555515 190.473142,63.0352877 190.581228,62.7464003 L201.62368,32.0143511 C201.706864,31.8084289 201.781394,31.4704288 201.847977,31 L204.67058,31 C204.712084,31.3216877 204.778667,31.5942628 204.861674,31.8249167 L216.319163,62.7464003 C216.435373,63.0517755 216.65967,63.4639708 217,64 L213.255838,64 C213.222282,63.5956979 213.13115,63.1835026 212.990038,62.7464003 L209.336831,52.8188095 L195.695718,52.8188095 Z M197,52 L209,52 L202.882002,35 L197,52 Z M237.253752,48.8605074 L237.253752,62.4333073 C237.253752,62.9444294 237.311691,63.4723901 237.427393,64 L234,64 C234.115702,63.4723901 234.17417,62.9444294 234.17417,62.4333073 L234.17417,32.6079122 C234.17417,32.088897 234.115702,31.5528678 234,31 L242.709544,31 C244.920038,31 246.923254,31.4704288 248.711796,32.4021654 C251.567722,33.8948384 253,36.2943409 253,39.6006729 C253,42.2557365 252.089527,44.3831901 250.267877,45.9991708 C248.148783,47.904039 245.160072,48.8605074 241.302274,48.8605074 L237.253752,48.8605074 Z M238,48 L241.707519,48 C243.541268,48 245.004064,47.7425795 246.094728,47.219258 C247.280569,46.6627208 248.213503,45.8074205 248.893192,44.6360424 C249.628205,43.3489399 250,41.9286219 250,40.3669611 C250,38.0913428 249.312239,36.2888693 247.928982,34.9766784 C246.553292,33.6560071 244.680026,33 242.308007,33 L238,33 L238,48 Z M260,31 L263,31 C262.898731,31.379395 262.848019,31.8989364 262.848019,32.5672189 L262.848019,62.4496197 C262.848019,63.117376 262.898731,63.6290243 263,64 L260,64 C260.101423,63.4723901 260.152597,62.9528487 260.152597,62.4496197 L260.152597,32.5672189 C260.152597,32.0639899 260.101423,31.5360292 260,31 Z M274.587403,33.943951 L274.587403,62.4496197 C274.587403,62.9528487 274.644375,63.4723901 274.758144,64 L273,64 C273.113769,63.4723901 273.170741,62.9528487 273.170741,62.4496197 L273.170741,32.5672189 C273.170741,32.0639899 273.113769,31.5360292 273,31 L276.329443,31 C276.411004,31.3053753 276.56564,31.6105752 276.785559,31.9154242 L296.371903,60.1327317 L296.371903,32.5672189 C296.371903,32.0639899 296.314932,31.5360292 296.200989,31 L297.959306,31 C297.845364,31.5360292 297.788392,32.0639899 297.788392,32.5672189 L297.788392,62.6227417 C297.788392,63.2496293 297.861641,63.7114633 298,64 L295.37049,64 C295.272825,63.744439 295.061217,63.3897756 294.743633,62.9363609 L274.587403,33.943951 Z M320.491853,31 C325.33245,31 329.097417,32.4501643 331.794727,35.3415054 C334.597953,38.3237791 336,42.523775 336,47.9668695 C336,53.4182467 334.597953,57.6434428 331.794727,60.6584946 C329.121512,63.5498357 325.389482,65 320.597595,65 C315.488134,65 311.609104,63.4754683 308.960678,60.4352162 C306.319879,57.3780464 305,53.1280023 305,47.6685188 C305,42.4657966 306.401527,38.3567334 309.196952,35.3415054 C311.828737,32.4995076 315.585903,31.049872 320.491853,31 Z M319.854872,33 C315.798319,33 312.749943,34.5384761 310.717806,37.6065364 C308.903019,40.3150084 308,43.8600301 308,48.2407123 C308,52.9308325 308.903019,56.6597386 310.717806,59.4187166 C312.733817,62.4700601 315.846523,64 320.072221,64 C324.008005,64 327.01624,62.5618245 329.096409,59.6858292 C331.032308,56.9938961 332,53.2569873 332,48.4831054 C332,43.684504 331.032308,39.9555979 329.096409,37.3141708 C327.991651,35.8087726 326.725812,34.7305411 325.290313,34.078765 C323.781908,33.3759494 321.967635,33.0165389 319.854872,33 L319.854872,33 Z"></path>
            </g>
        </g>
    </g>
</svg>